<svg width="64" height="70" viewBox="0 0 64 70" fill="none" xmlns="http://www.w3.org/2000/svg">
<path d="M8.08208 66.0076V22.625L0.0750873 64.0989C-0.383309 66.4692 1.31018 68.7136 3.70723 68.915L3.94931 68.9357L9.12661 69.3705C8.46837 68.4141 8.08208 67.2563 8.08208 66.0076Z" fill="#00838F"/>
<path d="M55.6554 47.256C57.4498 45.5363 63.8962 38.7464 63.5892 30.2027C63.5882 30.2089 60.6853 45.1232 44.4416 50.934C34.0108 54.6646 31.3531 62.4275 31.2264 66.7799C29.399 48.4366 44.5261 39.2825 44.5261 39.2825C33.3423 43.8177 28.1639 53.1587 25.3559 61.5392C24.7255 57.1435 24.5503 52.1527 25.6762 47.6227C28.5245 36.1664 39.7506 32.0474 49.2533 30.6572L46.1588 22.631C45.6767 21.3833 44.6157 20.4537 43.3188 20.1459L40.1471 19.393L40.8971 24.4777C41.2823 24.7597 41.5326 25.2151 41.5326 25.7295C41.5326 26.5857 40.8414 27.2798 39.9885 27.2798C39.1356 27.2798 38.4444 26.5857 38.4444 25.7295C38.4444 25.1015 38.8173 24.5624 39.3509 24.3186L38.569 19.017L22.6014 15.2234L24.0343 24.9363C24.1723 25.1687 24.2526 25.4393 24.2526 25.7295C24.2526 26.5857 23.5614 27.2798 22.7085 27.2798C21.8556 27.2798 21.1634 26.5857 21.1634 25.7295C21.1634 24.9786 21.697 24.3517 22.4036 24.2102L21.0233 14.8474L14.9178 13.3973C12.3786 12.7931 9.94244 14.7276 9.94244 17.348V65.9402C9.94244 68.356 12.0305 70.2358 14.4213 69.9755L57.1675 65.3277C59.8108 65.0396 61.4631 62.3149 60.503 59.8268L55.6554 47.256Z" fill="#00838F"/>
<path d="M40.4675 25.8399L37.8108 7.823C37.2257 3.85378 34.1344 0.727359 30.184 0.111783C24.1053 -0.837401 18.8518 4.39809 19.7521 10.5063L22.0461 26.062C22.1007 26.4328 22.418 26.7075 22.7919 26.7075C23.2514 26.7075 23.6037 26.2975 23.5367 25.8399L21.2427 10.2853C20.913 8.04919 21.5393 5.87919 23.0062 4.17293C24.4597 2.48216 26.5549 1.51232 28.7542 1.51232C29.1508 1.51232 29.5546 1.54331 29.9522 1.60528C33.2691 2.12376 35.8289 4.71104 36.3213 8.04506L38.978 26.062C39.0326 26.4328 39.3498 26.7075 39.7227 26.7075C40.1821 26.7075 40.5355 26.2975 40.4675 25.8399Z" fill="#006973"/>
</svg>
