<svg width="255" height="70" viewBox="0 0 255 70" fill="none" xmlns="http://www.w3.org/2000/svg">
<path d="M8.08208 66.0076V22.625L0.0750873 64.0989C-0.383309 66.4692 1.31018 68.7136 3.70723 68.915L3.94931 68.9357L9.12661 69.3705C8.46837 68.4141 8.08208 67.2563 8.08208 66.0076Z" fill="white"/>
<path d="M55.6554 47.256C57.4498 45.5363 63.8962 38.7464 63.5892 30.2027C63.5882 30.2089 60.6853 45.1232 44.4416 50.934C34.0108 54.6646 31.3531 62.4275 31.2264 66.7799C29.399 48.4366 44.5261 39.2825 44.5261 39.2825C33.3423 43.8177 28.1639 53.1587 25.3559 61.5392C24.7255 57.1435 24.5503 52.1527 25.6762 47.6227C28.5245 36.1664 39.7506 32.0474 49.2533 30.6572L46.1588 22.631C45.6767 21.3833 44.6157 20.4537 43.3188 20.1459L40.1471 19.393L40.8971 24.4777C41.2823 24.7597 41.5326 25.2151 41.5326 25.7295C41.5326 26.5857 40.8414 27.2798 39.9885 27.2798C39.1356 27.2798 38.4444 26.5857 38.4444 25.7295C38.4444 25.1015 38.8173 24.5624 39.3509 24.3186L38.569 19.017L22.6014 15.2234L24.0343 24.9363C24.1723 25.1687 24.2526 25.4393 24.2526 25.7295C24.2526 26.5857 23.5614 27.2798 22.7085 27.2798C21.8556 27.2798 21.1634 26.5857 21.1634 25.7295C21.1634 24.9786 21.697 24.3517 22.4036 24.2102L21.0233 14.8474L14.9178 13.3973C12.3786 12.7931 9.94244 14.7276 9.94244 17.348V65.9402C9.94244 68.356 12.0305 70.2358 14.4213 69.9755L57.1675 65.3277C59.8108 65.0396 61.4631 62.3149 60.503 59.8268L55.6554 47.256Z" fill="white"/>
<path d="M40.4675 25.8399L37.8108 7.823C37.2257 3.85378 34.1344 0.727359 30.184 0.111783C24.1053 -0.837401 18.8518 4.39809 19.7521 10.5063L22.0461 26.062C22.1007 26.4328 22.418 26.7075 22.7919 26.7075C23.2514 26.7075 23.6037 26.2975 23.5367 25.8399L21.2427 10.2853C20.913 8.04919 21.5393 5.87919 23.0062 4.17293C24.4597 2.48216 26.5549 1.51232 28.7542 1.51232C29.1508 1.51232 29.5546 1.54331 29.9522 1.60528C33.2691 2.12376 35.8289 4.71104 36.3213 8.04506L38.978 26.062C39.0326 26.4328 39.3498 26.7075 39.7227 26.7075C40.1821 26.7075 40.5355 26.2975 40.4675 25.8399Z" fill="white"/>
<path d="M81.5054 29.1372C82.5962 29.1372 83.655 29.319 84.6816 29.6826C85.7297 30.0462 86.6708 30.5809 87.5049 31.2868C88.3391 31.9926 89.0022 32.8481 89.4941 33.8534C90.0074 34.8587 90.2641 35.9923 90.2641 37.2542C90.2641 38.9011 89.8791 40.3235 89.1091 41.5212C88.3391 42.6976 87.3338 43.5959 86.0933 44.2162C84.8527 44.8365 83.5373 45.1466 82.1471 45.1466C81.3343 45.1466 80.6071 45.0718 79.9654 44.922C79.3238 44.7509 78.7677 44.537 78.2971 44.2804V50.6328H72.2976V29.1372H81.5054ZM78.2971 34.7517V39.7246C78.6607 39.8529 79.0457 39.9599 79.4521 40.0454C79.8799 40.131 80.329 40.1738 80.7996 40.1738C81.7407 40.1738 82.5214 39.885 83.1417 39.3075C83.7833 38.7086 84.1041 38.0242 84.1041 37.2542C84.1041 36.3773 83.7833 35.7463 83.1417 35.3613C82.5214 34.9549 81.7407 34.7517 80.7996 34.7517H78.2971ZM99.7286 33.7892C100.584 33.7892 101.418 33.9817 102.231 34.3667C103.065 34.7303 103.75 35.2009 104.284 35.7784V34.2705H109.803V50.6328H104.284V47.9058C103.878 48.8041 103.258 49.5634 102.424 50.1837C101.589 50.8039 100.584 51.1141 99.4077 51.1141C98.1886 51.1141 97.0443 50.8039 95.9749 50.1837C94.9054 49.5634 94.0285 48.6116 93.3441 47.3283C92.681 46.0236 92.3495 44.3873 92.3495 42.4196C92.3495 40.5801 92.681 39.0188 93.3441 37.7354C94.0285 36.4521 94.9268 35.4789 96.039 34.8159C97.1726 34.1315 98.4025 33.7892 99.7286 33.7892ZM100.884 39.1792C100.092 39.1792 99.4291 39.5 98.8944 40.1417C98.3811 40.7833 98.1244 41.5426 98.1244 42.4196C98.1244 43.2965 98.3918 44.0344 98.9265 44.6333C99.4612 45.2322 100.167 45.5316 101.044 45.5316C101.515 45.5316 101.996 45.414 102.488 45.1787C102.98 44.922 103.397 44.5477 103.739 44.0558C104.103 43.5425 104.284 42.8901 104.284 42.0987V40.5267C103.814 40.1417 103.279 39.8208 102.68 39.5642C102.103 39.3075 101.504 39.1792 100.884 39.1792ZM120.005 33.7892C121.074 33.7892 122.058 33.9496 122.957 34.2705C123.876 34.5699 124.614 34.987 125.17 35.5217V39.8529C124.614 39.5107 123.983 39.1899 123.277 38.8904C122.572 38.5696 121.812 38.4092 121 38.4092C120.486 38.4092 120.026 38.5161 119.62 38.73C119.235 38.9225 119.043 39.2327 119.043 39.6604C119.043 39.9599 119.16 40.1844 119.395 40.3342C119.631 40.4839 120.091 40.6443 120.775 40.8154L121.77 41.0721C124.614 41.7993 126.037 43.3286 126.037 45.6599C126.037 46.7294 125.716 47.6812 125.074 48.5153C124.454 49.3281 123.63 49.9698 122.604 50.4403C121.598 50.8895 120.508 51.1141 119.331 51.1141C118.112 51.1141 116.979 50.9429 115.93 50.6007C114.882 50.2371 113.984 49.7987 113.236 49.2853V44.9862C114.006 45.4568 114.872 45.8524 115.834 46.1733C116.818 46.4941 117.695 46.6545 118.465 46.6545C119.085 46.6545 119.534 46.5797 119.813 46.4299C120.112 46.2802 120.262 46.0129 120.262 45.6279C120.262 45.3284 120.091 45.1038 119.748 44.9541C119.406 44.783 118.914 44.5905 118.273 44.3766L116.636 43.8633C115.439 43.4997 114.562 42.9329 114.006 42.1629C113.449 41.3715 113.171 40.409 113.171 39.2754C113.171 38.1418 113.471 37.1686 114.07 36.3559C114.669 35.5431 115.481 34.9121 116.508 34.463C117.556 34.0138 118.722 33.7892 120.005 33.7892ZM135.18 33.7892C136.036 33.7892 136.87 33.9817 137.683 34.3667C138.517 34.7303 139.201 35.2009 139.736 35.7784V34.2705H145.254V50.6328H139.736V47.9058C139.33 48.8041 138.709 49.5634 137.875 50.1837C137.041 50.8039 136.036 51.1141 134.859 51.1141C133.64 51.1141 132.496 50.8039 131.427 50.1837C130.357 49.5634 129.48 48.6116 128.796 47.3283C128.133 46.0236 127.801 44.3873 127.801 42.4196C127.801 40.5801 128.133 39.0188 128.796 37.7354C129.48 36.4521 130.379 35.4789 131.491 34.8159C132.624 34.1315 133.854 33.7892 135.18 33.7892ZM136.335 39.1792C135.544 39.1792 134.881 39.5 134.346 40.1417C133.833 40.7833 133.576 41.5426 133.576 42.4196C133.576 43.2965 133.844 44.0344 134.378 44.6333C134.913 45.2322 135.619 45.5316 136.496 45.5316C136.966 45.5316 137.447 45.414 137.939 45.1787C138.431 44.922 138.848 44.5477 139.191 44.0558C139.554 43.5425 139.736 42.8901 139.736 42.0987V40.5267C139.266 40.1417 138.731 39.8208 138.132 39.5642C137.554 39.3075 136.956 39.1792 136.335 39.1792ZM160.911 40.3342C160.59 40.1631 160.248 40.0347 159.884 39.9492C159.542 39.8422 159.136 39.7888 158.665 39.7888C157.916 39.7888 157.253 40.0133 156.676 40.4625C156.098 40.9117 155.628 41.4998 155.264 42.2271V50.6328H149.746V34.2705H155.264V37.19C155.778 36.3131 156.344 35.5538 156.965 34.9121C157.606 34.2705 158.44 33.9496 159.467 33.9496C160.023 33.9496 160.504 34.0459 160.911 34.2384V40.3342ZM174.193 33.7892C175.412 33.7892 176.557 34.0994 177.626 34.7196C178.717 35.3399 179.594 36.2917 180.257 37.575C180.92 38.8583 181.251 40.4946 181.251 42.4837C181.251 44.3232 180.909 45.8845 180.225 47.1678C179.562 48.4512 178.663 49.435 177.53 50.1195C176.418 50.7825 175.199 51.1141 173.872 51.1141C173.017 51.1141 172.172 50.9323 171.338 50.5686C170.525 50.1837 169.851 49.7024 169.317 49.1249V58.3327H163.798V34.2705H169.317V36.9975C169.723 36.0992 170.343 35.3399 171.177 34.7196C172.012 34.0994 173.017 33.7892 174.193 33.7892ZM172.557 39.3717C172.108 39.3717 171.627 39.5 171.113 39.7567C170.621 39.9919 170.194 40.3662 169.83 40.8796C169.488 41.3715 169.317 42.0132 169.317 42.8046V44.3766C169.809 44.7616 170.343 45.0825 170.921 45.3391C171.52 45.5958 172.119 45.7241 172.717 45.7241C173.53 45.7241 174.193 45.4033 174.707 44.7616C175.22 44.0986 175.477 43.3393 175.477 42.4837C175.477 41.6068 175.209 40.8689 174.674 40.27C174.14 39.6711 173.434 39.3717 172.557 39.3717ZM192.192 33.7892C193.732 33.7892 195.101 34.1315 196.298 34.8159C197.496 35.5003 198.427 36.4628 199.09 37.7034C199.774 38.9225 200.116 40.3769 200.116 42.0666V43.9595H188.983C189.219 44.7509 189.689 45.3391 190.395 45.7241C191.101 46.1091 191.914 46.3016 192.833 46.3016C194.074 46.3016 195.143 46.1305 196.042 45.7883C196.961 45.4247 197.646 45.1145 198.095 44.8579V49.5741C197.539 49.9163 196.769 50.2585 195.785 50.6007C194.823 50.9429 193.732 51.1141 192.513 51.1141C191.358 51.1141 190.235 50.9216 189.144 50.5366C188.074 50.1516 187.112 49.5955 186.256 48.8682C185.401 48.141 184.727 47.2641 184.235 46.2374C183.743 45.1894 183.497 44.013 183.497 42.7083C183.497 41.0828 183.872 39.5963 184.62 38.2488C185.39 36.9013 186.428 35.8212 187.732 35.0084C189.058 34.1956 190.545 33.7892 192.192 33.7892ZM192.031 38.345C191.326 38.345 190.716 38.5375 190.203 38.9225C189.689 39.2861 189.315 39.8529 189.08 40.6229H194.887C194.887 39.8529 194.587 39.2861 193.988 38.9225C193.411 38.5375 192.759 38.345 192.031 38.345ZM219.494 27.533V50.6328H213.976V47.9058C213.57 48.8041 212.95 49.5634 212.115 50.1837C211.281 50.8039 210.276 51.1141 209.1 51.1141C207.88 51.1141 206.736 50.8039 205.667 50.1837C204.597 49.5634 203.72 48.6116 203.036 47.3283C202.373 46.0236 202.041 44.3873 202.041 42.4196C202.041 40.5801 202.373 39.0188 203.036 37.7354C203.72 36.4521 204.619 35.4789 205.731 34.8159C206.864 34.1315 208.094 33.7892 209.42 33.7892C210.276 33.7892 211.11 33.9817 211.923 34.3667C212.757 34.7303 213.441 35.2009 213.976 35.7784V27.533H219.494ZM210.575 39.1792C209.784 39.1792 209.121 39.5 208.586 40.1417C208.073 40.7833 207.816 41.5426 207.816 42.4196C207.816 43.2965 208.084 44.0344 208.618 44.6333C209.153 45.2322 209.859 45.5316 210.736 45.5316C211.206 45.5316 211.688 45.414 212.18 45.1787C212.671 44.922 213.089 44.5477 213.431 44.0558C213.794 43.5425 213.976 42.8901 213.976 42.0987V40.5267C213.506 40.1417 212.971 39.8208 212.372 39.5642C211.795 39.3075 211.196 39.1792 210.575 39.1792ZM228.253 25.0947C228.873 25.0947 229.44 25.2445 229.953 25.5439C230.488 25.8433 230.916 26.2497 231.237 26.7631C231.558 27.255 231.718 27.8111 231.718 28.4314C231.718 29.0303 231.558 29.5864 231.237 30.0997C230.916 30.613 230.488 31.0194 229.953 31.3188C229.44 31.6183 228.873 31.768 228.253 31.768C227.333 31.768 226.531 31.4472 225.847 30.8055C225.162 30.1425 224.82 29.3511 224.82 28.4314C224.82 27.4903 225.162 26.6989 225.847 26.0572C226.531 25.4156 227.333 25.0947 228.253 25.0947ZM231.365 34.2705V50.6328H225.847V38.7621H223.184V34.2705H231.365ZM242.145 33.7892C243.001 33.7892 243.835 33.9817 244.648 34.3667C245.482 34.7303 246.166 35.2009 246.701 35.7784V34.2705H252.219V50.6328H246.701V47.9058C246.294 48.8041 245.674 49.5634 244.84 50.1837C244.006 50.8039 243.001 51.1141 241.824 51.1141C240.605 51.1141 239.461 50.8039 238.391 50.1837C237.322 49.5634 236.445 48.6116 235.761 47.3283C235.097 46.0236 234.766 44.3873 234.766 42.4196C234.766 40.5801 235.097 39.0188 235.761 37.7354C236.445 36.4521 237.343 35.4789 238.456 34.8159C239.589 34.1315 240.819 33.7892 242.145 33.7892ZM243.3 39.1792C242.509 39.1792 241.846 39.5 241.311 40.1417C240.798 40.7833 240.541 41.5426 240.541 42.4196C240.541 43.2965 240.808 44.0344 241.343 44.6333C241.878 45.2322 242.584 45.5316 243.46 45.5316C243.931 45.5316 244.412 45.414 244.904 45.1787C245.396 44.922 245.813 44.5477 246.155 44.0558C246.519 43.5425 246.701 42.8901 246.701 42.0987V40.5267C246.23 40.1417 245.696 39.8208 245.097 39.5642C244.519 39.3075 243.92 39.1792 243.3 39.1792Z" fill="white"/>
</svg>
